<?xml version="1.0" encoding="utf-8"?>
<!-- Generator: Adobe Illustrator 27.9.0, SVG Export Plug-In . SVG Version: 6.00 Build 0)  -->
<svg version="1.1" id="Layer_1" xmlns="http://www.w3.org/2000/svg" xmlns:xlink="http://www.w3.org/1999/xlink" x="0px" y="0px"
	 viewBox="0 0 8503.94 5669.29" style="enable-background:new 0 0 8503.94 5669.29;" xml:space="preserve">
<g>
	<path d="M4506.58,4444.27c-5.07,0.36-11.07-0.31-16.35,1.33c-25.95,8.1-51.69,16.76-75.2,30.96
		c-25.42,15.34-47.85,34.03-67.06,56.7c-10.94,12.91-21.88,25.89-33.7,37.97c-20.06,20.51-44.71,27.39-72.76,21.7
		c-17.23-3.49-31.05-13.48-43.35-25.19c-10.62-10.11-20.15-21.44-29.64-32.67c-11.88-14.05-22.75-28.97-34.91-42.77
		c-23.52-26.7-50.36-49.43-82.09-66.09c-15.76-8.28-32.61-13.09-49.74-17.31c-5.68-1.4-11.39-2.8-16.88-4.8
		c-13.87-5.04-27.29-5.12-40.49,2.16c-14.63,8.07-30.53,9.66-46.98,10.01c-16.4,0.35-30.2-5.02-42.61-15.11
		c-1.71-1.39-3.54-2.72-4.98-4.36c-14.2-16.09-32.52-25.04-53.03-29.43c-14.32-3.07-25.66-10.82-36.16-20.14
		c-9.35-8.31-18.23-17.16-27.12-25.98c-29.45-29.19-64.41-49.17-104.36-59.2c-27.11-6.81-55.04-10.16-83.23-6.8
		c-8.74,1.04-17.38,2.56-24.57,6.55c-4.9,7.64-2.83,15.12-3.06,22.36c-0.58,18.15-11.83,30.02-29.79,32.12
		c-12.86,1.5-24.77-0.37-35.98-7.32c-32.91-20.4-57.67-48.01-72.37-83.78c-8.37-20.37-14.87-41.54-21.62-62.53
		c-11.57-35.96-27.32-69.9-49.24-100.67c-8.93-12.54-19.21-24.26-29.93-35.34c-46.93-48.5-102.64-83.2-166.77-104.29
		c-4.18-1.38-8.5-2.39-12.82-3.26c-1.29-0.26-2.8,0.56-5.69,1.23c-0.16,2.94-1.23,6.56-0.35,9.62c2.23,7.76,4.61,15.63,8.22,22.81
		c8.36,16.62,13.1,34.32,16.94,52.31c6.77,31.71-12.75,55.68-41,63.04c-8.64,2.25-17.32,0.76-25.49-4.11
		c-12.16-7.25-23.21-15.79-32.28-26.53c-20.97-24.85-37.86-52.37-52.36-81.44c-6.89-13.81-14.12-27.48-21.69-40.94
		c-16.38-29.1-40.11-50.26-69.88-65.33c-21.96-11.11-45.08-17.34-69.24-20.88c-8.67-1.27-17.23-3.76-25.61-6.45
		c-15.85-5.08-23.45-16.67-24.67-32.96c-1.66-22.12,7.86-38.79,26.12-49.98c13.87-8.49,29.34-13.76,45.91-14.2
		c16.17-0.43,32.29-0.82,48.16,4.13c7.22,2.25,12.77-4.92,10.41-12.21c-0.9-2.78-1.99-5.59-3.49-8.09
		c-10-16.64-22.59-31.3-39.38-40.96c-32.95-18.95-68.35-25.55-106.25-18.77c-16.68,2.98-33.42,5.5-49.34,11.3
		c-18,6.56-35.24,14.94-50.7,26.41c-15.35,11.39-30.83,22.68-45.37,35.04c-22.82,19.4-39.3,43.54-49.69,71.71
		c-3.05,8.26-5.14,16.98-9.11,24.76c-4.63,9.08-9.74,18.39-16.59,25.78c-13.5,14.55-33.05,13.84-46.84-0.61
		c-4.55-4.77-8.64-10.06-12.38-15.5c-38.79-56.49-74.64-114.84-106.7-175.35c-34.47-65.05-63.89-132.43-89.66-201.47
		c-20.84-55.84-39.51-112.37-54.56-169.94c-11.51-44.03-24.05-87.88-31.43-132.99c-5.1-31.16-12.91-61.86-18.34-92.97
		c-4.04-23.15-5.16-46.83-9.47-69.92c-6.38-34.13-5.22-68.92-10.71-103.09c-1.74-10.86-2.18-21.99-2.49-33.01
		c-2.46-89.83-2.7-179.68-0.19-269.51c0.37-13.22,1.83-26.42,2.95-39.62c1.37-16.13,2.56-32.29,4.44-48.36
		c3.59-30.65,7.37-61.29,11.56-91.87c2.89-21.09,6.46-42.1,10.02-63.09c2.33-13.76,4.86-27.5,7.87-41.13
		c5.85-26.53,12.89-52.82,18.01-79.49c8.76-45.6,23.28-89.58,36.33-133.96c25.56-86.94,59.6-170.64,98.25-252.54
		c40.58-86,88.12-168.13,138.92-248.34c21.61-34.13,46.17-66.4,69.77-99.25c25.77-35.87,51.62-71.72,80.76-104.98
		c34.44-39.31,68.56-78.95,104.39-116.96c26.23-27.82,54.37-53.94,82.78-79.57c37.7-34,75.43-68.11,115.12-99.69
		c37.37-29.74,76.99-56.7,116.16-84.1c90.64-63.39,187.04-116.89,286.74-164.48c61.02-29.12,122.81-56.51,186.82-78.61
		c35.4-12.22,70.38-25.68,105.89-37.56c25.75-8.61,51.99-15.8,78.14-23.16c25.43-7.16,50.86-14.44,76.59-20.36
		c27.87-6.41,56.11-11.25,84.16-16.9c18.7-3.77,37.33-7.95,56.06-11.59c12.96-2.52,25.97-5.63,39.08-6.39
		c27.21-1.58,53.48-10.08,80.83-10.13c0.74,0,1.48-0.01,2.21-0.08c32.93-3.25,65.85-6.53,98.79-9.75
		c12.44-1.22,24.88-3.15,37.33-3.27c51.55-0.5,103.11-0.9,154.65-0.36c22.77,0.24,45.52,2.79,68.27,4.31
		c11.75,0.79,23.51,1.52,35.25,2.48c13.93,1.14,27.84,2.46,41.75,3.78c2.93,0.28,5.83,1.31,8.73,1.26
		c28.87-0.49,56.9,6.6,85.36,9.72c22.55,2.47,44.8,7.61,67.18,11.59c13.72,2.44,27.36,5.42,41.16,7.29
		c45.99,6.25,90.15,20.54,135.21,30.83c24.99,5.71,49.24,14.7,73.8,22.28c60.38,18.63,120.6,37.89,178.94,62.19
		c50.87,21.19,101.61,42.73,150.84,67.82c57.69,29.41,115.02,59.34,170.29,93.14c37.66,23.02,75.26,46.08,111.06,71.97
		c30.39,21.97,62.04,42.28,91.61,65.27c31.33,24.36,62.65,48.75,92.72,74.85c50.14,43.52,96.8,90.48,143.21,137.75
		c17,17.32,32.68,35.93,48.96,53.95c31.09,34.42,60.29,70.4,87.75,107.76c28.75,39.12,58.02,77.89,85.53,117.87
		c19.98,29.04,37.78,59.61,55.99,89.84c36.48,60.53,69.98,122.71,100.38,186.49c33.57,70.44,62.39,142.9,85.93,217.27
		c14.63,46.21,26.66,93.25,39.52,140.01c6.61,24.06,12.62,48.3,18.61,72.53c2.64,10.68,4.9,21.49,6.78,32.33
		c3.39,19.54,6.4,39.16,9.51,58.75c3.69,23.21,7.32,46.43,11,69.64c0.23,1.45,0.85,2.85,1,4.3c3.01,28.48,6.31,56.94,8.85,85.47
		c1.96,21.99,3.02,44.05,4.37,66.09c0.9,14.7,2.19,29.41,2.28,44.12c0.27,42.71,0.17,85.43-0.09,128.15
		c-0.16,26.5-0.26,53.01-4.42,79.34c-1.37,8.68-0.79,17.64-1.46,26.45c-1.69,22-3.57,43.98-5.42,65.97
		c-0.31,3.67-1.01,7.3-1.25,10.97c-2.29,35.27-7.44,70.16-13.63,104.93c-5.67,31.83-10.41,63.83-15.96,95.69
		c-2.14,12.29-5.31,24.41-8.14,36.57c-6.49,27.87-12.56,55.86-19.75,83.55c-6.65,25.57-14.01,50.99-22.02,76.17
		c-10.45,32.9-21.45,65.64-32.91,98.2c-25.17,71.52-55.31,140.84-90.41,208.12c-20.82,39.9-43.38,78.51-70.68,114.28
		c-5.79,7.59-11.78,15.14-18.53,21.86c-27.43,27.31-46.25,24.93-76.04,12.24c-15.64-6.67-29.23-16.85-41.86-28.36
		c-18.48-16.85-36.58-34.26-56.24-49.65c-23.72-18.57-48.62-35.54-76.51-47.85c-28.4-12.54-57.78-15.48-88.32-13.39
		c-21.56,1.47-42.35,5.03-61.41,15.72c-23.62,13.25-43.16,30.54-54.45,55.82c-1.17,2.61-2.58,5.69-2.16,8.27
		c0.38,2.33,3.01,5.95,4.84,6.08c5.02,0.34,10.26-0.4,15.22-1.54c24.34-5.61,46.58,1.4,68.12,11.49
		c22.07,10.34,31.15,30.61,36.49,52.49c2.89,11.83-0.36,23.44-9.48,32.54c-13.33,13.3-28.88,22.9-47.69,25.54
		c-37.91,5.32-72.72,17.07-102.11,42.98c-15.91,14.03-35.15,21.17-56.87,20.27c-6.62-0.27-13.27,0.32-19.88-0.02
		c-29.13-1.5-56.72,5.07-84.3,13.86c-38.85,12.38-75.23,29.58-109.91,50.75c-66.03,40.32-114.99,95.81-146.73,166.26
		c-9.65,21.43-17.95,43.49-26.34,65.46c-14.14,37.05-37.7,68.04-63.08,97.69c-11.08,12.94-25.6,22.1-41.82,28.01
		c-22.31,8.12-46.78-1.93-55.4-22.88c-4.06-9.88-3.61-20.11-0.78-30.25c1.18-4.23,3.18-8.28,4.04-12.56
		c1.82-9.06-2-14.33-10.88-15.43c-3.64-0.45-7.35-0.48-11.03-0.56c-14.73-0.33-29.46-1.07-44.18-0.81
		c-68.56,1.22-129.95,23.05-182.84,66.67c-49.23,40.61-85.11,91-106.78,151.41c-6.93,19.33-15.13,38.35-29.24,54.02
		c-9.75,10.82-21.3,17.32-36.2,18.7c-24.46,2.26-47.93-19.49-51.85-39.6c-2.53-12.96-4.41-26-1.94-39.47
		C4510.34,4463.11,4512.68,4454.08,4506.58,4444.27z M5030.04,4133.62c1.49-2.92,2.87-5.49,4.13-8.11
		c9.18-19.24,17.46-38.98,27.68-57.65c21.62-39.48,47.93-75.54,78.1-109.2c25.84-28.82,55.16-52.97,86.56-74.95
		c26.57-18.6,54.71-34.6,85.17-46.03c8.16-3.06,11.78-8.18,11.97-16.39c0.1-4.42,0.09-8.84,0.11-13.26
		c0.14-29.5-3.06-58.67-6.29-87.99c-3.47-31.5-8.13-62.6-14.51-93.6c-11.45-55.62-27.62-109.76-47.67-162.84
		c-17.71-46.9-39.36-91.98-62.78-136.19c-26.22-49.49-54.99-97.53-89.89-141.46c-22.88-28.79-47.16-56.48-71.22-84.31
		c-28.47-32.93-60.31-62.54-92.99-91.15c-68.56-60.04-146.05-106.77-226.45-148.77c-54.26-28.34-111.93-48.54-170.78-64.97
		c-35.37-9.88-71.2-18.26-107.09-26.04c-20.07-4.35-40.69-6.27-61.1-9c-13.1-1.76-26.25-3.43-39.42-4.42
		c-57.35-4.33-114.77-5.39-172.08-0.03c-24.11,2.25-47.91,7.6-71.97,10.54c-35.86,4.39-70.93,12.22-105.54,22.27
		c-54.39,15.8-108.03,33.58-159.76,57c-94.58,42.81-181.31,97.85-258.14,167.55c-34.28,31.09-66.82,64.5-97.14,99.47
		c-56.98,65.73-106.6,136.77-147.2,214.1c-32.55,62-60.19,125.94-83.02,192.03c-5.03,14.55-8.01,29.8-12.83,44.43
		c-8.98,27.29-14.89,55.26-19.32,83.56c-3.52,22.51-5.87,45.21-9.57,67.7c-4.81,29.27-4.53,58.67-3.89,88.13
		c0.06,2.8,1.4,5.58,2.2,8.61c4.69,2.6,9.07,5.23,13.63,7.51c42.88,21.4,83.8,45.35,120.27,77.26
		c34.72,30.38,64.45,64.48,89.28,102.96c25.2,39.05,46.63,80.04,59.06,125.23c2.5,9.07,7.18,11.91,16.28,10.72
		c8.73-1.14,17.35-3.05,26.04-4.51c7.96-1.34,15.93-3.54,23.91-3.6c35.22-0.28,70.18-1.87,105.48,5.11
		c36.46,7.21,71,18.42,103.82,34.94c39.68,19.97,75.52,45.61,106.46,77.81c7.12,7.41,15.56,13.57,22.6,21.04
		c7.27,7.71,15.82,10.15,25.89,9.4c11.75-0.87,23.54-1.22,35.25-2.49c26.64-2.89,53.47-0.92,79.13,4.34
		c30.79,6.32,60.65,17.59,88.7,32.65c22.75,12.22,43.92,26.7,64.14,42.74c17.94,14.23,34.72,29.53,48.89,47.6
		c7.72,9.84,15.5,19.64,23.6,29.17c2.69,3.17,6.46,5.43,10.46,8.7c4.02-3.42,7.47-5.96,10.45-8.97c18.09-18.29,35.8-36.8,56.9-52
		c65.77-47.38,138.64-73.02,219.83-74.57c10.98-0.21,21.95-0.64,32.93-0.96c8.21-8.38,16.57-16.61,24.61-25.15
		c26.82-28.45,55.04-55.43,87.11-77.87c33.35-23.34,70.2-39.49,109-52.05c43.17-13.97,86.97-21.11,132.26-20.02
		c19.88,0.48,39.68,0.6,59.26,5.32C5003.42,4136.05,5016.72,4135.98,5030.04,4133.62z M2497.36,3641.22
		c5.06-2.17,7.55-2.52,8.94-3.94c20.11-20.58,40.89-40.27,66.76-53.67c0.65-0.34,1.27-0.75,1.88-1.15
		c4.17-2.76,5.68-6.86,4.61-11.46c-0.99-4.25-2.63-8.43-4.49-12.4c-7.81-16.66-15.86-33.2-23.72-49.84
		c-34.92-73.96-64.32-150.08-88.79-228.1c-12.32-39.27-23.97-78.73-32.3-119.09c-5.94-28.78-12.24-57.48-17.91-86.32
		c-3.4-17.29-6.37-34.7-8.69-52.17c-3.49-26.24-6.27-52.57-9.3-78.87c-3.79-32.87-8.58-65.66-11.04-98.63
		c-2.85-38.17-4.39-76.48-5.16-114.76c-1.62-81.81,4.87-163.27,12.13-244.66c1.5-16.83,4.16-33.57,6.69-50.29
		c2.86-18.89,5.84-37.78,9.39-56.55c2.86-15.16,7.58-30,9.85-45.22c6.85-45.96,20.56-90.26,32.03-135.07
		c16.08-62.77,40.45-122.86,64.91-182.62c23.38-57.12,50.35-112.77,79.91-167.15c32-58.87,66.48-116.16,104.28-171.39
		c22-32.15,46.17-62.82,69.52-94.04c10.57-14.13,21.2-28.24,32.37-41.9c33.1-40.47,67.93-79.4,104.29-116.98
		c49.7-51.39,102.07-99.95,159.21-142.84c45.87-34.43,93.4-66.7,141.01-98.73c43.94-29.57,89.11-57.27,136.35-81.43
		c49.11-25.11,97.99-50.65,148.97-71.93c72.58-30.3,145.82-58.84,221-82.05c28.73-8.87,57.99-16.08,87.17-23.43
		c24.21-6.1,48.78-10.74,72.94-17.02c30.61-7.96,61.89-12.2,92.86-18.17c19.49-3.75,39.38-5.42,58.76-9.08
		c29.01-5.48,58.55-5.62,87.45-11.24c4.28-0.83,8.81-0.39,13.23-0.58c29.42-1.27,58.84-2.89,88.27-3.73
		c27.21-0.77,54.47-1.5,81.67-0.8c36.79,0.94,73.56,3.18,110.33,5.06c8.07,0.41,16.09,1.65,24.14,2.51
		c12.43,1.33,24.87,2.54,37.27,4.04c10.19,1.23,20.35,2.76,30.51,4.24c5.09,0.74,10.2,2.54,15.23,2.31c20.94-0.95,40.76,5.7,61,8.96
		c33.29,5.36,66.21,13.01,99.27,19.76c2.87,0.59,5.63,1.65,8.47,2.4c14.17,3.77,28.33,7.57,42.52,11.24
		c22.01,5.71,44.41,10.19,65.98,17.22c46.77,15.23,93.73,29.86,139.82,47.2c58.54,22.02,116.31,45.78,172.1,74.05
		c37.4,18.95,74.21,39.06,111.26,58.68c45.59,24.13,88.68,52.32,131.04,81.58c41.16,28.43,82.15,57.15,120.29,89.66
		c26.87,22.91,54.86,44.61,80.58,68.75c54.19,50.86,108.04,102.16,154.35,160.66c24.66,31.15,50.1,61.69,74.38,93.13
		c45.07,58.35,83.52,121.19,121.07,184.44c49.23,82.93,92.85,168.77,125.94,259.65c14.07,38.65,29.9,76.67,40.64,116.5
		c5.35,19.84,12.22,39.27,17.49,59.12c6.02,22.68,11.06,45.62,16.48,68.46c3.22,13.57,6.56,27.11,9.5,40.74
		c3.72,17.21,7.77,34.39,10.44,51.77c3.56,23.23,5.88,46.64,8.84,69.96c0.56,4.37,1.73,8.66,2.39,13.03
		c1.2,7.99,2.8,15.98,3.23,24.02c1.1,20.58,1.25,41.2,5.47,61.54c1.33,6.42,1.15,13.19,1.36,19.81
		c3.36,106.8,3.33,213.54-7.22,320.01c-2.39,24.15-5.59,48.24-9.08,72.25c-3.17,21.82-7.08,43.53-10.96,65.24
		c-5.42,30.35-10.17,60.86-16.95,90.91c-7.76,34.36-17.05,68.39-26.41,102.36c-7.6,27.57-15.29,55.2-24.74,82.17
		c-14.57,41.58-30.3,82.78-46.32,123.83c-8.01,20.51-17.56,40.44-26.79,60.45c-10.47,22.68-21.46,45.13-32.05,67.75
		c-3.77,8.05-2.89,11.74,3.47,17.49c2.18,1.97,4.52,3.83,7.04,5.31c12.17,7.17,22.08,17.01,32.16,26.69
		c7.97,7.65,16.01,15.23,24.29,22.54c7.39,6.53,13.04,5.81,18.28-2.05c2.03-3.04,3.44-6.49,5.27-9.68
		c31.48-54.99,57.4-112.65,81.33-171.2c11.67-28.56,22.64-57.44,32.7-86.6c10.54-30.53,19.38-61.64,29.37-92.37
		c13.42-41.27,23.46-83.41,33.03-125.67c3.41-15.04,5.69-30.33,8.51-45.5c6.46-34.65,13.99-69.14,19.15-103.98
		c5.7-38.53,9.99-77.3,13.51-116.1c3.19-35.18,5.66-70.5,6.37-105.8c1.11-55.22,0.7-110.47,0.41-165.7
		c-0.08-15.42-1.9-30.85-3.08-46.26c-2.53-33.01-3.44-66.17-9.29-98.89c-0.9-5.04-0.56-10.29-0.98-15.43
		c-0.48-5.87-0.85-11.77-1.84-17.56c-5.79-34.06-11.45-68.14-17.72-102.11c-5.2-28.18-10.02-56.52-17.09-84.25
		c-11.25-44.14-23.65-88.01-36.69-131.65c-9.05-30.27-18.82-60.45-30.39-89.83c-17.25-43.78-34.99-87.49-55.03-130.04
		c-32.94-69.92-68.97-138.33-110.64-203.53c-32.48-50.82-66.17-100.79-102.11-149.34c-36.01-48.63-74.9-94.71-115.54-139.28
		c-61.05-66.96-125.12-130.97-195.13-188.76c-37.46-30.93-75.71-60.75-115.48-88.73c-64.48-45.35-131.22-86.88-200.27-124.89
		c-67.06-36.92-135.19-71.49-206.15-100.38c-79.05-32.17-159.12-61.23-241.52-83.8c-37.58-10.3-75.09-20.71-113.42-27.85
		c-13.73-2.56-27.39-5.44-41.1-8.11c-19.47-3.78-38.94-7.54-58.42-11.23c-12.27-2.32-24.51-5.03-36.88-6.61
		c-26.97-3.44-54.16-5.31-80.99-9.59c-42.28-6.74-85.03-8.47-127.52-10.53c-92.71-4.51-185.43-1.9-277.58,11.18
		c-3.64,0.52-7.36,0.44-11.01,0.88c-25.53,3.06-51.21,5.29-76.55,9.51c-32.59,5.44-64.94,12.4-97.35,18.89
		c-25.93,5.2-52.06,9.7-77.65,16.27c-35.56,9.13-70.69,19.95-106.03,29.95c-56.65,16.03-111.63,36.88-166.66,57.57
		c-68.97,25.93-135.16,57.99-200.68,91.42c-63.6,32.45-124.79,69.02-184.31,108.53c-45.99,30.53-91.08,62.05-133.7,97.24
		c-28.9,23.87-58.1,47.3-86.22,72.16c-55.81,49.33-108.55,101.54-157.53,157.67c-46.94,53.79-91.73,109.3-133.39,167.23
		c-21.43,29.8-40.44,61.33-61.02,91.76c-41.72,61.66-76.86,127.13-109.53,193.78c-34.92,71.26-66.3,144.21-90.7,219.9
		c-8.78,27.23-16.88,54.7-24.83,82.19c-6.32,21.86-12.47,43.79-17.71,65.92c-6.43,27.15-12.05,54.5-17.6,81.85
		c-3.06,15.1-5.31,30.37-7.85,45.58c-3.98,23.91-8.88,47.72-11.6,71.78c-3.63,32.14-9.24,64.15-8.72,96.69
		c0.05,2.92-0.69,5.85-0.92,8.78c-1.74,22-4.19,43.98-4.99,66.01c-1.09,30.17-1.25,60.38-1.22,90.58
		c0.03,37.56-0.22,75.16,1.27,112.67c1.49,37.47,4.92,74.87,7.66,112.29c0.43,5.85,1.78,11.63,2.61,17.46
		c1.04,7.28,2.06,14.56,2.97,21.86c3.01,24.07,5.47,48.22,9.1,72.19c3.85,25.41,8.51,50.7,13.37,75.94
		c3.33,17.28,7.37,34.44,11.53,51.55c5.03,20.68,10.22,41.33,15.89,61.84c10.36,37.5,19.74,75.36,32.09,112.2
		c14.24,42.49,30.55,84.33,47.24,125.94c21.93,54.65,46.9,107.93,76.74,158.8C2489.28,3629.78,2493.18,3634.98,2497.36,3641.22z
		 M4508.63,1960.8c-8.59-29.9-17.62-28.03-38.06-26.26c-1.47,0.13-3,0.15-4.37,0.62c-19.08,6.5-39.11,6.58-58.82,8.8
		c-27.35,3.08-54.41-1.07-81.27-4.83c-17.35-2.43-34.42-7.71-51.2-13.02c-28.07-8.9-55.21-20.27-80.84-34.95
		c-68.68-39.34-122.84-93.01-160.37-163.01c-22.11-41.25-36.96-84.74-40.59-131.7c-0.62-8.07-2.09-16.08-2.54-24.15
		c-0.65-11.74-2.24-23.71-0.73-35.23c3.41-26.19,3.84-52.59,10-78.66c11.46-48.49,29.21-93.83,57.38-135.01
		c5.39-7.89,10.5-15.99,15.38-24.21c2.22-3.74,4.09-7.87,5.17-12.07c2.06-8.07-4.25-15.26-12.3-13.66
		c-7.16,1.42-14.25,3.7-21.06,6.38c-51.94,20.42-97.96,50.11-138.13,88.86c-37.94,36.6-68.36,78.6-92.02,125.75
		c-28.87,57.56-45.03,117.84-42,182.66c0.52,11.03,0.31,22.08,0.69,33.12c0.2,5.87,0.31,11.86,1.54,17.56
		c3.57,16.48,7.71,32.83,11.59,49.24c10.95,46.33,30.14,89.03,57.58,127.87c10.16,14.38,21.98,27.56,32.74,41.53
		c30.53,39.63,68.78,70.13,111.31,95.91c37.52,22.75,77.85,38.41,120.62,46.75c23.66,4.61,47.44,9.87,72.02,9.52
		c30.15-0.44,60.14,0.42,90.05-6.12c25.13-5.5,50.44-9.69,74.07-20.45c12.02-5.48,24.41-10.18,36.34-15.84
		c41.52-19.68,79.59-44.47,112.09-77.24C4498.52,1973.31,4503.38,1966.91,4508.63,1960.8z M4938.19,2017.16
		c-10.94,0.01-18.69,1.77-22.32,16.2c-3.55,14.15-8.29,28.47-15.23,41.23c-25.44,46.79-59.15,85.87-107.71,110.43
		c-20.42,10.33-41.45,18.8-63.46,25.04c-9.88,2.8-19.78,5.83-29.23,9.82c-6.57,2.77-9.43,8.92-9.17,16.28
		c0.24,6.84,4,10.72,10.17,12.81c4.85,1.64,9.65,3.45,14.51,5.07c25.01,8.36,50.71,14.9,74.06,27.7
		c23.99,13.15,46.76,28.14,64.88,48.86c25.98,29.7,45.1,63.4,56.36,101.44c2.06,6.98,5.47,13.62,8.88,20.09
		c1.24,2.36,4.16,5.16,6.51,5.37c7.18,0.62,14.62,0.94,21.67-0.28c6.87-1.19,7.53-8.38,9.27-13.87
		c5.55-17.48,10.79-34.99,18.58-51.74c16.5-35.5,39.93-64.94,71.94-87.68c26.64-18.93,55.41-33.16,86.88-42.01
		c11.99-3.37,24-6.84,35.64-11.22c8.6-3.23,12.02-9.46,11.4-16.96c-0.65-7.98-4.61-12.39-13.76-15.01
		c-2.82-0.81-5.84-0.92-8.65-1.76c-20.41-6.1-41.04-11.56-60.27-21.06c-29.82-14.73-58.76-30.76-81.11-56.22
		c-21.02-23.94-39.02-49.81-49.75-80.15c-3.18-8.99-5.9-18.15-9.14-27.13C4954.57,2019.75,4951.02,2017.31,4938.19,2017.16z
		 M3503.42,2244.86c-2.94,0-5.89-0.17-8.82,0.03c-38.28,2.63-69.28,18.1-89.41,51.81c-5.59,9.35-10.43,19.31-14.28,29.49
		c-3.17,8.41-8.38,13.53-16.59,16.16c-2.8,0.9-5.7,1.54-8.41,2.64c-15.75,6.38-23.19,25.05-15.7,40.14
		c1.56,3.14,4.43,5.94,7.34,7.99c2.92,2.06,6.66,2.94,10.01,4.42c19.54,8.65,19.54,8.66,27.9,27.92c0.88,2.02,1.49,4.17,2.48,6.13
		c10.09,19.99,23.12,37.63,42.45,49.57c27.39,16.93,56.37,21.94,88.59,15.21c39.18-8.19,67.25-29.3,82.49-65.46
		c7.11-16.86,15.73-28.95,33.86-33.49c6.3-1.58,12.91-4.14,15.08-11.52c2.58-8.77,2.93-18.02-2.38-25.48
		c-4.08-5.74-10.05-12.4-16.31-13.89c-16.05-3.81-22.63-15.01-27.74-28.5c-0.78-2.06-1.58-4.14-2.65-6.06
		C3587.71,2269.75,3553.71,2244.16,3503.42,2244.86z M5431.81,3098.27c7.7,4.05,14.04,7.5,20.48,10.75
		c14.42,7.27,29.14,13.99,43.28,21.76c22.38,12.28,39.33,30.58,53.59,51.39c10.52,15.35,15.88,32.91,20.35,50.81
		c1.92,7.69,5.72,10.47,12.1,10.71c6.5,0.25,11.57-2.35,14.49-8.09c1.64-3.22,2.26-6.94,3.38-10.43
		c13.57-42.46,38.92-75.32,78.72-96.3c11.69-6.16,23.57-11.96,35.3-18.06c6.5-3.38,12.96-6.85,19.22-10.65
		c2.97-1.81,3.1-7.74,0.22-9.7c-4.82-3.28-9.91-6.19-15.05-8.97c-14.21-7.69-28.97-14.47-42.66-22.99
		c-25.39-15.79-46.36-36.12-59.32-63.65c-5.94-12.63-11.5-25.43-17.24-38.16c-1.81-4.02-3.34-8.19-5.5-12.01
		c-5.52-9.8-12.84-10.21-17.89-0.54c-5.09,9.74-9.62,19.84-13.51,30.12c-14.3,37.77-37.27,68.08-73.54,87.28
		c-11.04,5.84-22.01,11.8-33.01,17.72c-5.82,3.13-11.93,5.85-17.3,9.62C5435.35,3090.68,5434.18,3094.49,5431.81,3098.27z
		 M5470.51,2407.92c3.36,2.6,6.92,6.15,11.16,8.47c15.43,8.48,31.43,15.98,46.58,24.91c19.31,11.38,35.26,26.77,46.03,46.53
		c8.06,14.79,14.43,30.49,21.62,45.76c1.84,3.92,3.48,8.06,6.05,11.47c3.33,4.42,10.35,4.31,13.3-0.42
		c2.61-4.19,4.15-9.17,5.59-13.97c12.68-42.2,37.47-74.41,77.36-94.21c9.22-4.58,18.59-8.83,27.84-13.35
		c4.62-2.26,9.3-4.5,13.64-7.23c7.44-4.69,7.63-11,0.62-15.57c-3.07-2-6.33-3.74-9.64-5.32c-9.94-4.75-20.07-9.11-29.9-14.07
		c-39.21-19.8-66.68-49.94-80.71-91.94c-1.85-5.54-4.3-10.96-7.09-16.1c-4.57-8.39-11.63-8.55-16.99-0.48
		c-2.43,3.65-4.41,7.63-6.26,11.62c-4.65,9.99-8.77,20.24-13.73,30.08c-9.7,19.25-21.57,36.74-40.74,48.11
		c-17.05,10.12-33.8,20.75-50.91,30.77C5478.56,2396.33,5472.51,2398.92,5470.51,2407.92z M5479.33,1934.43
		c3.43,2.55,7.07,6.09,11.38,8.3c10.46,5.37,21.32,9.93,31.86,15.15c31.52,15.62,55.29,38.61,67.94,72.08
		c2.59,6.86,4.99,13.84,8.17,20.43c3.96,8.21,14.94,9.48,19.93,2.14c3.67-5.4,6.23-11.61,8.84-17.65
		c11.29-26.13,26.37-48.68,51.31-64.49c16.33-10.36,33.61-18.17,51.01-26.06c5.98-2.71,12.72-4.25,15.16-12.68
		c-7.47-7.89-18.03-11.57-27.42-16.99c-10.18-5.87-20.92-10.87-30.71-17.32c-25.29-16.66-43.53-39.24-54.3-67.68
		c-2.34-6.19-4.37-12.5-6.82-18.65c-2.86-7.17-7.09-12.93-15.85-13.13c-6.28,3.29-9.66,8.9-12.35,15.03
		c-2.95,6.73-6.05,13.41-8.65,20.28c-8.04,21.22-21,38.87-39.05,52.45c-10.55,7.93-21.82,14.96-33.13,21.78
		c-8.17,4.92-16.87,8.97-25.48,13.13C5485.65,1923.2,5481,1926.4,5479.33,1934.43z M3013.06,2727.09c5.3,2.6,9.56,5.69,14.29,6.84
		c21.99,5.35,40.35,17.19,57.47,31.28c23.12,19.01,35.15,44.76,43.53,72.65c1.26,4.21,1.38,9.14,3.74,12.54
		c2.27,3.28,6.52,6.32,10.37,7.07c4.52,0.89,8.18-2.9,9.96-7.21c2.8-6.79,5.15-13.76,7.76-20.63
		c14.72-38.74,38.25-69.24,78.45-84.35c7.56-2.84,14.81-6.48,22.16-9.85c2.64-1.21,5.31-2.49,7.69-4.13
		c3.82-2.62,4.45-8.77,0.61-11.43c-8.41-5.82-17.02-11.48-26.02-16.33c-35.22-18.98-64.5-43.68-80.09-81.77
		c-3.89-9.49-7.09-19.26-10.62-28.91c-1.31-3.57-3.14-7.44-7.39-6.77c-3.25,0.51-6.89,2.55-9.04,5.04
		c-2.79,3.24-4.48,7.51-6.28,11.5c-4.23,9.37-8.4,18.78-12.33,28.28c-9.33,22.58-25.31,39.44-45.58,52.32
		c-15.49,9.84-31.42,19-47.31,28.17C3019.09,2714.52,3014.82,2718.06,3013.06,2727.09z M5406.43,2767.86
		c-4.91-11.82-13.53-14.9-21.19-18.79c-7.19-3.65-14.95-6.15-22.2-9.68c-32.18-15.68-56.42-39.4-72.01-71.79
		c-3.51-7.29-6.72-14.79-11.05-21.57c-2.53-3.97-7.01-6.69-11.71-10.98c-4.19,5.04-8.01,8.48-10.34,12.72
		c-3.16,5.76-5.39,12.07-7.67,18.27c-9.77,26.52-26.53,47.3-50.95,61.6c-12.65,7.41-25.88,13.84-38.41,21.43
		c-6.03,3.65-14.93,6.49-14.7,14.99c0.27,9.96,9.82,10.85,17.27,14.07c31.63,13.66,59.63,32.2,76.4,63.6
		c6.54,12.23,11.4,25.36,17.03,38.08c1.47,3.31,2.48,6.93,4.47,9.89c6.6,9.83,14.85,9.58,20.25-0.63c2.38-4.5,4.43-9.35,5.64-14.29
		c7.79-31.75,26.3-55.36,54.38-71.47c15.92-9.14,32.37-17.36,48.53-26.08C5395.25,2774.5,5400.17,2771.49,5406.43,2767.86z
		 M3501.23,1235.16c-3.61,4.03-7.13,6.78-9.06,10.39c-3.45,6.46-6.05,13.39-8.8,20.21c-11.42,28.34-30.61,50.02-56.56,65.8
		c-10.04,6.11-20.44,11.6-30.54,17.61c-5.03,2.99-10.13,6.09-14.51,9.91c-5.69,4.97-4.88,13.01,1.66,16.73
		c7.66,4.36,15.68,8.15,23.67,11.89c38.02,17.83,63.52,46.71,76.75,86.51c1.85,5.58,4.03,11.05,5.91,16.63
		c1.5,4.46,3.8,8.16,8.91,8.49c5.31,0.34,7.68-3.93,9.71-7.72c2.06-3.83,3.32-8.11,4.79-12.24c12-33.82,32.73-60.63,63.85-78.92
		c13.94-8.19,28.21-15.8,42.24-23.83c8.53-4.88,9.1-10.61,1.42-17.27c-4.97-4.31-10.47-8.06-16-11.66
		c-5.54-3.6-11.34-6.84-17.17-9.98c-33.7-18.13-58.34-44.25-71.43-80.64c-1.49-4.15-2.68-8.58-5.06-12.18
		C3508.76,1241.45,3505.12,1238.91,3501.23,1235.16z M2708.71,2099.07c2.15,10.11,7.93,11.29,13.42,13.7
		c35.64,15.64,63.85,38.84,76.54,77.32c1.61,4.88,3.62,9.62,5.55,14.39c3.93,9.7,8.34,14.25,12.8,12.8
		c6.36-2.08,8.64-7.46,9.87-13.46c0.15-0.72,0.22-1.46,0.38-2.17c7.78-34.26,26.84-59.8,58.35-75.86
		c8.51-4.33,16.93-8.89,25.08-13.86c7.23-4.41,7.02-10.52-0.44-15.39c-11.06-7.24-22.41-14.04-33.56-21.16
		c-21.92-13.99-36.7-33.56-45.02-58.11c-2.12-6.26-3.62-12.83-6.57-18.68c-1.7-3.37-5.72-5.57-10-9.5
		c-4.05,6.26-7.5,10.86-10.15,15.87c-4.46,8.43-8.48,17.1-12.57,25.72c-6.43,13.56-15.24,25.13-28.06,33.25
		c-13.63,8.64-27.35,17.11-41.01,25.7C2718.47,2092.69,2713.7,2095.85,2708.71,2099.07z M2821.88,2896.14
		c-5.18,12.13-9.07,20.75-12.58,29.54c-10.69,26.79-26.98,48.64-53.02,62.54c-7.72,4.12-14.79,9.6-21.69,15.05
		c-5.83,4.61-4.59,10.55,2.39,13.58c4.71,2.04,9.51,3.88,14.33,5.64c26,9.52,41.44,29.55,52.66,53.5c3.73,7.96,5.89,16.64,9.4,24.72
		c2.24,5.16,3.6,11.42,10.23,13.41c8.19-1.59,9.04-8.42,11.21-14.65c11.87-34.13,32.27-60.72,66.74-74.81
		c5.4-2.21,10.75-5,15.37-8.52c2.46-1.87,3.3-5.87,5.55-10.22c-11.39-7.12-21.91-13.61-32.34-20.25
		c-23.79-15.13-40.95-35.43-49.24-62.8c-1.69-5.58-4.11-11.11-7.22-16.02C2831.52,2903.47,2827.62,2901.21,2821.88,2896.14z
		 M2873.48,3373.78c7.41,4.77,11.9,8.61,17.08,10.84c27.05,11.69,45.15,31.8,56.53,58.52c2.01,4.72,4.02,9.48,6.45,13.99
		c5,9.31,15.77,10.04,21,1.21c3.34-5.63,5.84-11.81,8.33-17.9c8.68-21.26,22.97-37.29,43.59-47.58c5.91-2.95,11.91-5.79,17.5-9.28
		c7.52-4.71,8.12-12.28,1.32-18.28c-4.36-3.85-9.36-7.06-14.39-10.04c-23.48-13.89-40.91-33.06-51.84-58.13
		c-2.04-4.68-4.4-9.32-7.29-13.52c-5.3-7.71-13.32-7.19-17.19,0.93c-1.89,3.96-3.2,8.2-4.88,12.26
		c-9.3,22.39-23.92,40.11-45.25,52.12c-7.02,3.95-13.84,8.35-20.33,13.12C2880.77,3364.5,2878.39,3368.25,2873.48,3373.78z
		 M4460.49,1472.09c-2.93-3.71-4.96-7.73-8.2-10.11c-6.48-4.76-13.32-9.23-20.55-12.73c-14.45-6.98-24.88-17.99-33.08-31.31
		c-4.98-8.1-9.28-16.62-13.81-25c-1.73-3.21-2.89-6.78-4.91-9.78c-4.16-6.16-12.56-6.42-16.8-0.6c-1.7,2.33-2.78,5.12-4.16,7.69
		c-4.15,7.75-8.29,15.51-12.47,23.24c-8.98,16.59-21.73,29.32-38.57,37.98c-6.5,3.34-13.02,6.82-18.95,11.06
		c-3.27,2.33-5.32,6.37-8.69,10.62c5.12,3.6,8.81,7.71,13.33,9.14c27.25,8.55,43.82,28.12,56.18,52.46
		c3.3,6.5,6.92,12.91,11.05,18.92c5.18,7.53,12.81,7.56,17.97,0.43c1.68-2.33,3.01-5.01,4.03-7.71
		c11.2-29.81,31.99-50.19,61.07-62.52c3.36-1.43,6.8-2.87,9.81-4.89C4456.03,1477.44,4457.72,1474.98,4460.49,1472.09z
		 M3301.5,1815.63c17.28-0.39,33.65-4.41,46.61-16.2c13.65-12.43,20.12-29.3,19.99-47.29c-0.21-29.29-19.67-51.63-43.75-59.95
		c-24.71-8.53-56.4-0.71-71.91,18.67c-9.3,11.62-16.65,24.55-16.07,39.96C3237.9,1791.63,3274.29,1816.65,3301.5,1815.63z
		 M4985.71,1320.69c-6.28,10.38-11.09,17.65-15.23,25.28c-12.12,22.32-26.46,42.35-50.89,52.87c-3.98,1.72-7.55,4.56-11.01,7.27
		c-4.78,3.74-4.55,9.75,0.33,12.86c2.47,1.57,5.06,3.03,7.77,4.12c22.22,8.96,36.54,26.41,49.15,45.66
		c3.21,4.9,5.78,10.21,8.72,15.29c3.06,5.29,7.21,9.07,13.63,9.62c9.97-3.64,14.45-12.03,18.94-20.54
		c9.11-17.26,21.29-31.53,39.42-39.99c4.64-2.17,9.3-4.57,13.36-7.64c3.35-2.53,5.83-6.21,8.19-8.81
		c-1.16-7.93-6.29-10.58-11.63-13.42c-22.1-11.76-38.41-29.21-49.6-51.53c-3.29-6.56-6.18-13.36-9.99-19.6
		C4994.75,1328.64,4991.11,1326.1,4985.71,1320.69z M3274.53,2058.83c-0.76-4.37-0.82-13.55-4.01-21.47
		c-13.57-33.74-54.08-47.53-86.18-30.14c-21.4,11.59-31.82,32.04-29.91,58.92c0.71,9.91,2.69,19.86,9.55,28.67
		c15.95,20.46,36.26,28.71,61.64,25.66c16.89-2.04,30.19-9.75,40.39-23.63C3273.58,2086.54,3273.18,2074.86,3274.53,2058.83z
		 M4799.22,1655.94c-1.12-31.65-24.29-60.11-58.92-58.88c-34.33,1.22-58.57,23.67-57.88,59.25c0.66,33.78,27.33,59.05,59.56,57.46
		C4775.37,1712.11,4799.79,1687.44,4799.22,1655.94z M3061.15,1699.81c-0.08-34.93-23.63-57.33-60.36-57.42
		c-28.86-0.07-54.98,25.67-55.22,54.42c-0.25,30.05,27.73,61.7,55.94,59.66C3033.72,1754.16,3062.32,1738.03,3061.15,1699.81z
		 M2836.43,2505.8c1.32-33.14-21.41-60.33-52.37-61.91c-31.67-1.61-59.43,22.28-60.16,51.12c-0.96,38.28,27.49,62.61,51.32,63.04
		C2808.9,2558.65,2835.21,2536.65,2836.43,2505.8z M5220.49,1854.74c32.53-0.19,59.39-24.42,59.08-53.29
		c-0.32-29.21-27.99-56.42-57.33-56.39c-28.61,0.03-55.87,25.13-54.84,52.8C5168.52,1827.86,5188.12,1853.81,5220.49,1854.74z
		 M5290.22,1466.66c-32.09-0.23-53.64,21.32-54.93,52.54c-1.22,29.75,21.68,55.06,53.24,54.99c32.16-0.07,56.59-23.48,56.89-54.61
		C5345.67,1493.14,5320.42,1463.38,5290.22,1466.66z M4496.65,2406.74c-18.93-0.8-33.93,5.53-44.21,20.85
		c-21.6,32.21-8.17,70.62,28.59,83.58c21.92,7.73,40.56,0.87,56.72-13.15c21.89-19,19.44-65.18-6.56-81.59
		C4519.9,2409.32,4508.72,2406.16,4496.65,2406.74z M3966.77,2379.88c0.37-32.02-21.48-55.8-52.72-55.71
		c-34.45,0.11-53.1,26.11-54.47,52.61c-1.33,25.63,25.6,53.18,49.5,53.47C3938.61,2430.61,3968.3,2411.53,3966.77,2379.88z
		 M4125.6,2417.59c-1.78,31.66,23.23,45.52,47.3,46.52c21.7,0.91,40.82-20.83,40.95-43.46c0.18-29.88-23.98-46.3-48.09-46.87
		C4143.84,2373.26,4125.68,2394.13,4125.6,2417.59z"/>
	<path d="M5496.1,4707.26c-8.34,2.86-8.36,7.7-7.95,13.18c1.49,19.81,3.15,39.62,3.89,59.46c0.58,15.43-0.03,30.92-0.26,46.38
		c-0.2,13.64-6.94,23.89-17.73,31.4c-9.94,6.92-20.95,8.16-30.75,0.34c-8.54-6.82-16.76-14.46-23.49-23.03
		c-15.44-19.66-30.06-39.99-44.71-60.27c-23.7-32.81-46.84-66.02-70.85-98.6c-10.02-13.6-21.46-26.17-32.68-38.83
		c-2.68-3.03-7.06-4.55-11.72-7.42c-20.08,23.55-48.03,33.79-72.15,45.67c-3.96,8.59-1.68,13.97,0.61,19.49
		c11.87,28.47,23.49,57.04,35.46,85.46c15.97,37.91,32.58,75.56,48.08,113.66c5.23,12.85,8.82,26.56,11.52,40.2
		c3.6,18.15-3.98,32.39-19.35,40.76c-7,3.81-13.81,4.27-21.12,1c-11.25-5.04-19.34-13.38-24.87-24.09
		c-8.77-16.97-17.74-33.88-25.45-51.34c-19.9-45.08-39.14-90.46-58.7-135.69c-6.41-14.82-12.78-29.67-19.59-44.3
		c-4.95-10.62-10.4-12.59-21.39-8.77c-2.08,0.72-4,1.9-6.08,2.61c-18.06,6.2-36.06,12.97-55.97,6.28
		c-12.32,23.88-32.54,35.75-56.63,43.07c-21.73,6.61-43.08,14.5-64.53,22.04c-14.53,5.11-19.65,12.38-15.16,26.94
		c4.47,14.48,6.83,30.22,18.1,43.28c3.85-0.73,8.15-1,12.07-2.37c20.08-7.06,40-14.57,60.09-21.59
		c21.91-7.66,44.12,6.08,50.24,30.03c2.51,9.84-0.76,18.88-7.37,26.66c-9.86,11.6-22.87,18.32-36.73,23.56
		c-13.06,4.93-26.31,9.37-39.49,13.99c-2.77,0.97-5.72,1.55-8.37,2.78c-9.63,4.45-12.78,10.08-11.98,21.19
		c0.21,2.92,0.55,5.9,1.32,8.71c5.78,21.23,11.38,42.52,17.65,63.61c3.86,12.96,4.73,26.1,4,39.34
		c-1.19,21.49-21.49,35.76-42.12,29.59c-4.63-1.39-9.76-4.46-12.44-8.31c-5.4-7.74-10.79-16.08-13.51-24.99
		c-11.12-36.52-21.18-73.37-31.72-110.07c-9.12-31.76-19.15-63.28-27.3-95.29c-6.15-24.16-11.69-48.73-14.37-73.46
		c-2.95-27.18,9.42-43.18,32.31-54.88c9.08-4.64,19.04-7.6,28.7-11.05c27.66-9.9,55.37-19.69,83.07-29.48
		c21.03-7.43,32.89-7.84,53.68-2.01c1.17-0.79,3.01-1.34,3.41-2.41c7.18-19.33,21.86-30.84,39.94-38.98
		c14.73-6.63,29.26-13.71,44.1-20.09c28.34-12.19,56.78-24.15,85.29-35.93c8.8-3.63,17.8-7.03,27.01-9.33
		c11.79-2.94,19.9-8.99,23.02-21.06c0.91-3.54,1.87-7.18,3.54-10.4c6.02-11.65,16.34-16.46,29.28-14.43
		c10.55,1.66,19.85,5.82,26.97,13.8c11.74,13.16,23.61,26.26,34.55,40.08c18.25,23.07,35.84,46.65,53.63,70.08
		c7.01,9.23,13.82,18.62,20.18,27.22c7.7-0.47,8.49-4.49,8.21-9.35c-1.29-22.04-2.86-44.07-3.64-66.14
		c-0.23-6.44,0.86-13.31,3.04-19.38c3.67-10.23,10.91-13.87,21.02-10.36c8.23,2.85,15.9,7.37,23.66,11.47
		c4.39,2.32,8.44,5.3,13.98,8.83c1.94-4.3,4.65-7.45,4.44-10.39c-0.64-8.86-4.01-16.9-8.58-24.73
		c-11.11-19.05-21.35-38.6-32.17-57.81c-4.92-8.72-6.05-18.06-5.66-27.73c0.52-12.98,8.45-20.48,21.52-19.28
		c12.54,1.15,24.4,4.3,34.18,13.51c18.27,17.2,36.51,34.21,47.07,57.75c9.01,20.1,19.6,39.54,27.72,59.98
		c7.29,18.35,12.08,37.68,18.12,56.54c6.49,20.24,13.1,40.45,19.75,60.64c3.21,9.74,7.69,19.21,9.7,29.18
		c2.73,13.57,5.37,27.53-6.16,39.46c-12.32,12.75-35.19,14.76-47.51,2.03c-9.66-9.98-17.8-21.51-25.95-32.83
		C5515.46,4730.14,5507.97,4717.47,5496.1,4707.26z"/>
	<path d="M3390.15,4530.6c4.34-0.24,8.74-0.84,13.1-0.66c13.21,0.56,20.36,6.18,23.78,18.7c0.96,3.51,1.31,7.26,1.45,10.92
		c1.16,30.16,2.18,60.28-3.15,90.25c-3.23,18.16-3.1,36.45-0.17,55.75c4.08,0,8.07,1.14,10.83-0.23c6.55-3.24,12.98-7.1,18.64-11.71
		c26.19-21.33,54.29-40.27,78.51-64.1c7.16-7.05,16.35-12.61,25.51-16.92c14.11-6.64,27.86-0.52,34.46,13.78
		c4.14,8.98,5.66,18.38,2.8,27.96c-3.15,10.55-6.12,21.25-10.47,31.32c-11.65,26.99-24.34,53.54-35.99,80.53
		c-13.4,31.04-25.72,62.55-39.3,93.51c-11.78,26.85-21.75,54.66-38.99,78.84c-1.28,1.8-2.37,3.73-3.7,5.49
		c-10.47,13.83-22.37,17.83-36.34,12.26c-14.9-5.94-24.65-21.46-20.88-37.19c3.91-16.35,9.29-32.5,15.64-48.08
		c8.03-19.7,17.86-38.66,26.56-58.09c2.67-5.97,4.46-12.39,6.01-18.76c0.38-1.56-1.31-4.45-2.87-5.44
		c-1.54-0.98-4.64-1.19-6.15-0.26c-4.35,2.67-8.48,5.82-12.28,9.24c-11.26,10.14-24.49,15.88-39.16,19.17
		c-20.74,4.65-38.28-6.34-42.21-27.69c-1.45-7.9-1.04-16.13-1.71-24.19c-0.47-5.66-1.33-11.3-1.92-16.21
		c-6.75-2.91-9.85,0.35-12.2,4.2c-9.18,15.07-18.3,30.18-27.11,45.46c-5.87,10.19-10.84,20.9-16.83,31.01
		c-4.48,7.57-9.35,15.08-15.12,21.67c-7.43,8.49-15.94,15.4-28.83,10.53c-13.53-5.11-22.95-13.8-24.06-28.57
		c-0.59-7.87,0.12-16.46,2.74-23.83c5.9-16.57,11.97-33.35,20.43-48.68c27-48.93,55.1-97.26,82.83-145.79
		c10.57-18.49,21.16-36.97,31.96-55.33C3372.36,4548.66,3380.3,4539.05,3390.15,4530.6z"/>
	<path d="M3752.67,4922.02c-3.84,6.34-7.15,10.25-8.78,14.75c-10.29,28.32-20.47,56.68-30.12,85.23
		c-3.83,11.35-8.84,21.91-16.69,30.81c-16.99,19.26-43.66,14.87-53.78-8.63c-3.57-8.28-5.29-16.77-2.81-25.79
		c3.89-14.15,6.89-28.58,11.47-42.49c16.52-50.19,33.76-100.15,50.27-150.35c8.02-24.41,14.9-49.19,22.53-73.73
		c2.83-9.1,6.15-18.06,9.63-26.93c1.6-4.08,3.8-8.01,6.27-11.63c11.12-16.29,30.35-16.94,41.91-0.45
		c5.33,7.6,9.24,16.95,11.12,26.05c6.07,29.49,10.61,59.29,16.3,88.86c3.6,18.7,8.27,37.2,12.27,55.83
		c1.54,7.17,2.5,14.47,3.83,21.69c1.23,6.66,3.24,12.88,11.5,16.42c1.5-2.98,3.66-5.81,4.38-8.96
		c9.62-42.19,23.37-83.22,34.87-124.88c3.11-11.25,8.14-22.09,13.33-32.61c6.76-13.72,18.53-20.28,32.05-18.18
		c4.79,0.74,9.93,2.99,13.66,6.07c10.09,8.33,15.96,19.35,15.78,32.67c-0.1,8.02-0.62,16.24-2.46,24.02
		c-14.2,60.08-31.24,119.37-49.78,178.25c-10.14,32.21-19.31,64.72-29.47,96.92c-3.07,9.74-7.32,19.25-12.15,28.26
		c-11.86,22.1-41.23,22.56-53.4,0.46c-9.04-16.42-13.3-34.06-17.46-51.9c-8.33-35.75-16.4-71.56-25.03-107.24
		C3760.23,4937.56,3756.49,4931.12,3752.67,4922.02z"/>
	<path d="M5953.86,4368.63c-13.99,0-27.97-0.05-41.96,0.03c-4.41,0.02-8.84,0.16-13.21,0.67c-4.47,0.52-9.75,1.85-9.91,6.88
		c-0.12,3.83,2.1,8.68,4.89,11.43c4.65,4.58,10.5,7.97,16.01,11.61c8.58,5.68,17.72,10.6,25.82,16.88
		c6.3,4.88,12.43,10.64,16.8,17.23c12.13,18.3,10.36,31.92-4.76,47.59c-11.19,11.6-23.73,14.21-37.99,6.69
		c-11.05-5.82-21.91-12.19-32.12-19.37c-44.53-31.33-89.02-62.74-133.06-94.75c-21.99-15.99-43.08-33.24-64.37-50.17
		c-5.16-4.1-9.38-9.36-14.27-13.82c-16.8-15.33-21.14-34.74-18.2-56.31c0.67-4.94,2.67-9.91,5-14.37
		c17.46-33.38,42.87-59.78,74.05-80.27c24.18-15.9,51.05-16.12,78.44-9.03c21.73,5.63,40.71,16,58.71,29.44
		c19.49,14.56,34.49,31.75,41.59,55.15c4.25,14.01,7.82,28.23,11.68,42.37c0.97,3.54,1.77,7.14,2.82,10.65
		c2.66,8.94,8.56,13.13,18.05,12.81c15.45-0.52,30.91-0.71,46.37-0.91c8.83-0.11,17.68,0.35,26.5,0.01
		c9.41-0.36,17.46,3.24,24.61,8.45c21.25,15.5,20.39,34.32-0.02,50.75c-8.51,6.86-18.93,11.01-30.68,10.73
		c-16.93-0.41-33.87-0.1-50.8-0.1C5953.86,4368.81,5953.86,4368.72,5953.86,4368.63z M5838.4,4274.68
		c-1.48-9.47-4.04-19.17-11.34-27.24c-10.77-11.9-24.72-18.44-39.49-22.95c-5.03-1.54-11.68-0.15-16.9,1.77
		c-12.96,4.76-20.98,15.85-29.25,26.06c-5.69,7.03-4.28,17.13,2.47,24.01c8.22,8.37,16.36,17.01,25.62,24.13
		c9.79,7.53,20.05,14.84,32.74,17.34c5.35,1.06,10.21,0.72,14.58-2.71C5829.66,4304.99,5835.87,4291.29,5838.4,4274.68z"/>
	<path d="M2969.32,4250.49c2.38,19.74-10.86,39.81-23.41,59.63c-21.35,33.72-52.12,55.45-90.37,66.58
		c-4.2,1.22-8.65,1.77-13.03,2.12c-39.3,3.2-35.72,9.94-36.25,40.79c-0.23,13.46-2.79,26.32-7.5,38.79
		c-1.81,4.78-4.4,9.28-6.92,13.75c-4.39,7.78-11.95,10.87-20.14,11.93c-14.15,1.84-29.91-8.43-34.61-21.92
		c-4.42-12.72-6.03-25.63-3.8-39.1c3.82-23.11,6.47-46.3,15.39-68.45c4.58-11.37,6.35-24.25,1.32-36.73
		c-3.08-7.63-8.47-9.89-15.61-5.29c-7.39,4.76-14.48,10.06-21.37,15.52c-10.38,8.23-20.19,17.19-30.81,25.09
		c-6.42,4.78-13.49,9.26-20.97,11.95c-23.79,8.54-47.25-8.54-46.76-33.86c0.09-4.8,1.98-10.15,4.64-14.19
		c3.99-6.08,8.86-11.82,14.28-16.68c29.57-26.5,58.59-53.5,86.74-81.57c23.42-23.35,47.86-45.7,70.18-70.16
		c10.4-11.4,20.53-23.06,30.64-34.71c8.7-10.02,17.79-19.58,29.08-26.76c5.32-3.39,10.77-4.6,16.62-1.32
		c7.02,3.94,14.53,7.21,20.99,11.92c25.33,18.5,45.18,42.07,61.07,68.93C2962.92,4190.72,2968.49,4217.17,2969.32,4250.49z
		 M2801.31,4250.08c9.22,15.34,18.62,30.06,33.48,40.37c8.03,5.57,16.25,6.37,24.62,1.03c15.78-10.05,28.98-22.45,34.88-40.87
		c1.29-4.03,2.74-8.93,1.61-12.67c-5.54-18.34-12.79-35.93-28.12-48.69c-4.77-3.97-9.26-3.77-13.57,0.51
		c-10.38,10.29-21.28,20.15-30.91,31.11C2815.72,4229.49,2804.31,4235.24,2801.31,4250.08z"/>
	<path d="M4547.14,4936.53c0-4.42,0.28-8.86-0.05-13.25c-2.14-28.54,5.28-55.49,14.54-81.88c10.68-30.43,30.9-53.54,59.81-67.7
		c15.72-7.7,32.3-11.36,51.05-7.47c29.74,6.17,52.54,21,71.18,44.34c28.09,35.17,46.29,75.19,56.85,118.38
		c5.71,23.35,10.72,47.13,9.79,71.86c-1.24,33.18-9.47,63.78-26.9,91.98c-18.35,29.7-45.17,48.93-78.34,57.11
		c-36.97,9.11-70.1-0.7-96.36-29.27c-20.2-21.98-34.77-47.44-44.04-75.82C4553.21,5009.66,4545.85,4973.78,4547.14,4936.53z
		 M4733.96,4986.45c-1.73-10.22-4.67-25.33-6.76-40.55c-2.64-19.17-9.08-37.13-18.03-53.95c-5.08-9.54-12.15-18.52-20.04-25.92
		c-10.17-9.55-22.57-12.44-36.61-6.8c-15.22,6.11-23.55,18.4-26.93,32.65c-3.68,15.51-5.64,32.13-4.38,47.95
		c1.91,23.96,4.63,48.15,12.58,71.18c6.51,18.87,14.57,36.84,30.87,49.69c12.57,9.91,24.98,9.65,37.9,0.23
		C4726.28,5043.64,4733.11,5019.08,4733.96,4986.45z"/>
	<path d="M2787.53,4039.08c3.06,34.71-11.44,63.74-31.57,89.53c-32.21,41.26-72.65,72.74-122.2,91.04
		c-33.13,12.23-65.11,9.84-93.62-12.65c-27.77-21.92-52.7-46.89-75.66-73.8c-3.32-3.89-6.01-8.35-8.81-12.66
		c-15.17-23.37-9.58-41.33,7.82-59.46c9.1-9.48,19.73-17.6,30.19-25.64c36.09-27.73,71.85-55.84,106.52-85.35
		c23.48-19.98,48.08-38.65,72.28-57.77c6.41-5.06,13.38-8.28,22.1-8.57c10.2-0.35,18.6,2.32,26.25,8.86
		c11.26,9.62,21.09,20.43,29.1,32.89c15.65,24.33,25.74,51.21,34.02,78.62C2787.29,4015.12,2786.46,4027.38,2787.53,4039.08z
		 M2711.84,4039.4c1.37-16.84-4.25-30.58-10.14-44.03c-6.53-14.89-14.51-19-28.71-6.77c-5.57,4.8-11.49,9.19-17.22,13.79
		c-15.49,12.43-31.01,24.81-46.44,37.31c-17.72,14.35-35.37,28.77-52.99,43.24c-2.83,2.33-5.51,4.91-7.9,7.68
		c-4.58,5.32-4.69,10.35,0.21,15.77c9.89,10.95,21.15,20.23,33.37,28.66c13.12,9.04,26.17,9.14,39.47,2.5
		c27.89-13.93,52.66-32.08,73.44-55.58C2706.2,4069.24,2712.4,4054.89,2711.84,4039.4z"/>
	<path d="M5809.59,4027.56c2.32-36.42,11.75-68.36,34.93-94.96c8.66-9.94,17.7-19.74,27.69-28.3c6.52-5.59,14.85-9.25,22.73-13.02
		c9.29-4.45,18.61-3.02,27.49,1.87c13.08,7.2,20.48,19,24.13,32.75c2.51,9.45,0.89,19.14-6.87,26.52
		c-4.78,4.55-9.62,9.04-14.6,13.36c-5,4.33-10.56,8.06-15.28,12.66c-12.04,11.72-19.2,25.67-19.24,43
		c-0.05,19.39,8.44,33.81,24.31,44.21c10.93,7.17,19.21,6.08,26.79-4.08c6.12-8.22,11.49-17.02,17.01-25.68
		c5.13-8.05,10.01-16.27,15.01-24.41c0.77-1.25,1.48-2.55,2.38-3.71c7.71-9.84,14.99-21.71,29.2-20.77
		c17.9,1.19,32.35,10.89,41.04,26.35c5.08,9.05,3.97,19.79-2.55,29.22c-11.26,16.3-22.21,32.83-33.13,49.36
		c-3.23,4.89-6.34,9.95-8.76,15.28c-3.74,8.26-2.07,16.15,5.51,21.37c9.64,6.64,19.44,13.82,30.27,17.79
		c17.4,6.39,27.93,3.3,36.01-10.87c4.73-8.28,9.37-16.62,13.98-24.96c8.87-16.04,17.66-32.14,26.55-48.17
		c11.1-20.01,28.1-17.01,41.99-13.1c10.52,2.96,23.64,23.35,19.88,38.4c-3.72,14.92-7.04,30.1-12.6,44.36
		c-11.89,30.47-30.02,57.22-53.62,79.88c-8.4,8.07-18.14,14.94-27.97,21.27c-13.94,8.98-29.48,9.82-44.35,3.21
		c-17.4-7.74-34.98-15.74-50.88-26.08c-38.19-24.83-75.54-50.97-113.06-76.83c-21.55-14.86-38.35-34.15-50.97-57.08
		C5813.91,4060.63,5810.27,4043.55,5809.59,4027.56z"/>
	<path d="M4091.26,5014.25c-6.44-4.91-17.77-3.55-19.31-13.2c-1.48-9.23-1.42-19.06,0.02-28.31c1.22-7.81,4.91-15.38,8.37-22.65
		c3.46-7.27,7.98-14.04,12.02-21c19.51-6.62,36.52,1.46,53.62,7.6c5.43,1.95,10.47,5.43,15.17,8.92c8.65,6.42,14.11,14.7,14.14,26.1
		c0.03,11.79-0.17,23.36-2.99,35.04c-4.14,17.1-6.27,34.69-10.13,51.87c-3.85,17.17-8.01,34.34-13.37,51.08
		c-14.47,45.26-59.97,56.94-94.09,47.06c-24.62-7.13-46.43-17.66-64.26-36.57c-15.62-16.56-25.01-36.24-31.59-57.45
		c-3.03-9.79-5.21-20.05-6.06-30.24c-0.97-11.63-0.39-23.44,0.22-35.14c0.38-7.31,2.21-14.54,3.15-21.84
		c6.91-53.83,21.18-104.9,54.68-149.02c17.66-23.26,38.21-43.11,66-53.3c25.87-9.48,51.73-10.04,76.06,5.79
		c12.28,7.99,19.9,19.49,24.85,32.87c1.49,4.04,2.25,8.69,2,12.98c-0.99,16.95-8.48,29.1-25.21,31.06
		c-9.3,1.09-19.17,0.54-28.38-1.32c-22.82-4.61-40.36,3.46-54.89,20.31c-13.19,15.3-21.85,33.34-28.13,52.14
		c-10.27,30.76-16.18,62.42-16.39,95.15c-0.15,23.35,12.74,38.57,29.54,51.36c9.86,7.51,21.86,4.28,28.48-6.62
		c4.56-7.51,8.89-15.38,8.55-24.7C4093.01,5033.51,4096.18,5024.63,4091.26,5014.25z"/>
	<path d="M5571.89,4354.58c6.29,1.7,12.96,2.59,18.8,5.28c14.68,6.73,29.28,13.75,43.37,21.62c23.74,13.26,47.32,26.85,70.49,41.06
		c46.37,28.44,92.52,57.24,138.51,86.28c7.37,4.65,13.9,10.91,20.03,17.2c17.72,18.2,9.91,49.62-14.29,56.99
		c-5.29,1.61-11.87,1.69-17.12,0.09c-8.33-2.54-16.13-6.94-24-10.87c-3.93-1.96-7.36-4.9-11.28-6.88
		c-35.05-17.7-29.05-18.54-56.92,5.56c-6.66,5.76-14.27,10.43-20.94,16.19c-11.44,9.88-12.28,14.85-6.85,28.88
		c7.41,19.15,14.95,38.27,21.78,57.63c4.71,13.33-2.24,31.65-14.4,38.23c-13.08,7.08-27.57,9.07-40.38-4.34
		c-4.51-4.73-8.44-10.27-11.55-16.03c-10.49-19.39-21.11-38.75-30.53-58.66c-16.67-35.22-32.84-70.68-48.57-106.33
		c-16.61-37.64-32.47-75.62-48.66-113.45c-6.17-14.43-6.07-28.06,2.81-41.85C5549.38,4360.05,5558.53,4354.65,5571.89,4354.58z
		 M5638.61,4477.02c6.31,16.18,14.22,29.1,22.41,41.85c1.11,1.73,3.08,3.5,4.98,3.99c2.6,0.67,6.93,1.29,8.05-0.08
		c4.48-5.49,8.43-11.55,11.62-17.88c0.86-1.7-0.9-6.16-2.79-7.56c-9.89-7.33-19.95-14.5-30.54-20.74
		C5649.48,4474.92,5644.58,4476.72,5638.61,4477.02z"/>
	<path d="M3094.41,4639.93c-13.79,6.72-21.89,15.15-30.09,23.66c-7.1,7.37-14.87,14.15-22.73,20.73c-5.18,4.33-11.58,5.64-18.4,6.44
		c-27.83,3.26-41.52-29.02-32.94-46.53c3.18-6.49,7.29-12.93,12.37-17.99c11.45-11.41,23.75-21.97,35.77-32.8
		c2.73-2.46,5.85-4.49,8.55-6.98c25.37-23.46,50.47-47.23,76.11-70.39c13.08-11.81,27.01-22.71,40.75-33.76
		c18.33-14.74,36.69-29.46,55.4-43.71c6.96-5.3,14.83-9.45,22.5-13.74c8.69-4.87,17.21-3.11,24.91,2.32
		c8.57,6.05,15.45,13.42,17.77,24.32c2.77,12.98,4.4,25.62,3.07,39.24c-3.58,36.92-14.27,72.08-24.38,107.34
		c-15.81,55.14-36.02,108.75-59.55,161.09c-5.76,12.82-12.28,25.14-22.55,34.99c-10.38,9.97-22.04,11.13-34.14,3.7
		c-14.81-9.09-19.32-21.54-16.22-39.48c2.9-16.77,7.49-32.83,14.32-48.38c1.75-3.99,2.43-8.46,3.44-12.75
		c2.47-10.48-0.51-18.33-9.94-24.48c-7.96-5.19-14.7-12.22-22.32-17.97C3109.14,4649.54,3101.73,4644.91,3094.41,4639.93z
		 M3201.36,4545.79c-15.1,8.22-24.07,16.65-32.5,25.41c-6.86,7.12-6.12,18.56,0.21,26c8.47,9.96,18.98,8.7,23.77-3.4
		c3.47-8.76,6.28-17.89,8.3-27.09C3202.32,4561.34,3201.36,4555.51,3201.36,4545.79z"/>
	<path d="M4414.6,4786.57c35.89,4.54,68.33,16.15,91.13,46.68c0.88,1.18,1.69,2.41,2.52,3.62c7.98,11.65,12.19,24.54,4.23,37.13
		c-8.41,13.29-22.14,18.9-37.91,18.4c-9.44-0.3-16.19-6.77-23.28-11.79c-8.52-6.02-17.2-10.91-27.6-12.97
		c-19.57-3.87-37.54,7.93-40.07,27.8c-0.58,4.53,1.5,10.19,4.11,14.2c11.03,16.92,26.46,29.41,43.2,40.32
		c11.7,7.63,24.01,14.39,35.34,22.53c27.02,19.4,47.37,43.95,55.7,76.94c1.6,6.35,2.96,13.03,2.75,19.51
		c-0.79,24.69-6.8,48.16-21.14,68.52c-13.59,19.3-33.13,31.35-55.3,38.24c-13.88,4.31-28.07,9.22-43.24,6.79
		c-28.65-4.59-53.53-16.28-71.47-39.68c-6.16-8.04-11.41-17.31-14.8-26.83c-9.47-26.6,13.13-53.62,40.86-49.18
		c5.45,0.87,11.04,4.08,15.41,7.63c5.65,4.58,10.69,10.18,15.02,16.06c6.92,9.39,16.87,11.71,27.19,12.16
		c19.37,0.86,37.44-22.22,32.21-40.84c-1.13-4.03-3.76-8.16-6.83-11.04c-9.09-8.52-18.29-17.06-28.27-24.46
		c-15.36-11.38-31.62-21.54-47.1-32.78c-9.49-6.89-18.7-14.31-27.21-22.38c-21.38-20.26-32.18-46.45-32.66-74.9
		c-0.42-25.05,7.2-49.42,24.22-69.38c12.62-14.81,27.45-26.58,46.54-31.97C4390.08,4791.54,4401.13,4784.27,4414.6,4786.57z"/>
	<path d="M3051.77,4349.12c-13.37,6.61-22,18.67-30.74,30.29c-5.87,7.8-5.39,16.68,0.33,24.72c2.97,4.18,6.93,7.65,9.93,11.81
		c7.3,10.12,15.33,19.91,21.2,30.84c11.94,22.24-5.6,50.4-30.93,50.02c-5.49-0.08-11.59-2.46-16.28-5.51
		c-14.79-9.6-29.29-19.53-39.12-35.02c-6.1-9.61-10.31-9.34-19.5-1.68c-8.47,7.06-17.24,13.76-25.58,20.96
		c-10.9,9.4-11.75,19.86-2.13,30.71c9.27,10.45,19.4,20.13,28.75,30.51c8.39,9.3,15.61,19.33,20.07,31.39
		c3.83,10.35,1.54,19.94-4.93,26.77c-10.31,10.89-23.27,17.8-39.55,13.75c-16.9-4.21-30.54-14.71-44.14-24.36
		c-13.07-9.27-24.81-20.95-35.32-33.13c-11.55-13.38-20.59-28.62-20.42-47.6c0.08-9.9,1.89-19.01,7.88-27.01
		c7.93-10.6,15.12-21.88,24.05-31.55c19.94-21.61,40-43.23,61.42-63.33c30.72-28.83,58.01-60.49,83.58-93.81
		c6.26-8.16,13.64-15.46,19.96-23.58c15.38-19.77,44.71-19.42,61.59-1.05c22.86,24.88,48.19,47.5,72.6,70.95
		c9.59,9.22,18.86,18.59,25.1,30.56c3.31,6.35,4.1,12.63,0.08,18.82c-3.6,5.54-7.06,11.27-11.41,16.18
		c-9.44,10.67-22.96,13.82-35.98,7.85c-7.26-3.33-14.08-7.99-20.37-12.98c-12.68-10.06-24.78-20.85-37.27-31.15
		c-5.1-4.21-10.49-8.07-15.94-11.82C3057.01,4350.47,3054.69,4350.15,3051.77,4349.12z"/>
	<path d="M3694.34,4701.03c-0.65,2.72-1.79,9.99-4.15,16.83c-12.9,37.44-25.9,74.84-39.24,112.12
		c-12.59,35.2-25.45,70.3-38.57,105.31c-6.43,17.15-13.38,34.13-20.73,50.91c-3.21,7.34-8.09,13.94-12.06,20.96
		c-10.2,18.04-37.49,15.28-48.45-1.03c-6.7-9.97-10.15-21.35-7.02-33.55c3.81-14.88,7.01-30.05,12.33-44.4
		c25.25-68.03,51.1-135.83,76.84-203.68c5.46-14.4,11.01-28.78,17.14-42.9c2.58-5.95,6.19-11.7,10.38-16.66
		c7.87-9.31,18.59-11.3,29.86-6.59C3687.26,4665.25,3695,4677.67,3694.34,4701.03z"/>
	<path d="M4717.34,3779.97c-56.67,0.94-106.99-8.05-155.1-28.23c-39.18-16.43-73.48-39.81-101.84-71.85
		c-13.7-15.47-23.02-33.14-24.22-53.27c-2.51-42.21,20.71-72.96,63.37-72.63c16.32,0.12,30.27,5.33,41.63,16.99
		c7.7,7.9,15.55,15.73,22.48,24.28c11.85,14.64,26.36,24.94,43.64,32.54c28.75,12.65,58.85,17.75,89.84,18.9
		c13.23,0.49,26.53,0.63,39.74-0.09c39.18-2.14,77.12-10.28,112.89-26.63c29.97-13.69,54.69-33.67,72.89-61.84
		c9.49-14.69,19.77-29.21,35.09-39.19c5.79-3.77,11.37-6.5,18.23-6.62c2.94-0.05,5.9-0.1,8.82-0.42
		c45.88-5.13,77.34,47.86,63.66,85.77c-5.82,16.12-12.89,31.06-23.91,44.3c-48.96,58.83-111.01,97.86-183.18,121.58
		c-10.44,3.43-21.26,6.05-32.1,7.87C4777.35,3776.79,4745.4,3782.35,4717.34,3779.97z"/>
	<path d="M3791.99,3779.52c-58.53,1.81-111.02-9.03-160.73-30.37c-46.2-19.84-87.95-47.19-122.66-84.57
		c-17.76-19.13-33.71-39.08-41.26-64.35c-11.77-39.38,1.45-64.99,33.63-83.88c7.01-4.12,16.96-3.51,25.63-4.44
		c18.49-2,32.93,5.56,43.83,20.1c7.93,10.58,15.61,21.36,22.94,32.37c19.55,29.38,48.12,46.93,79.47,60.66
		c23.64,10.35,48.88,15.89,74.09,20c17.98,2.93,36.69,1.74,55.07,1.72c36.34-0.05,71.29-7.56,105.26-20.31
		c22.61-8.49,41.37-21.94,55.94-41.24c6.67-8.83,13.91-16.86,23.47-23c13.36-8.58,27.79-7.69,42.57-7.76
		c12.26-0.06,20.68,6.1,29.18,13.41c23.49,20.22,29.48,41.67,20.03,70.89c-4.62,14.31-12.64,26.4-22.33,37.59
		c-23.08,26.65-52.51,44.64-83.27,60.73c-28.11,14.71-57.48,26.55-88.53,33.05C3852.66,3776.76,3820.66,3782.1,3791.99,3779.52z"/>
</g>
</svg>
